# xmcd
# Track frame offsets:
# 150
# 13050
# 24825
# 39975
# 51750
# 66075
# 78675
# 94050
# 113325
# 126300
# 141300
# 151275
# 162375
# 177075
# 190950
# 202650
#
# Disc length: 2883 seconds
# Revision: 0
# Processed by: cddbd v1.4PL0 Copyright (c) Steve Scherf et al.
# Submitted via: VisiTrax 2.9.5.181 - For more info visit www.synapsa.com
#
DISCID=ca0b4110
DTITLE=Various Artist - Queens Of Country  Disc 1
DYEAR=1999
DGENRE=
TTITLE0=Dolly Parton - Little Blossom
TTITLE1=Donna Fargo - Happiest Girl In The Whole USA
TTITLE2=Jeannie C Riley - Harper Valley PTA
TTITLE3=Patsy Cline - Walking After Midnight
TTITLE4=Barbara Fairchild - Teddy Bear Song
TTITLE5=Sandy Posey - Single Girl
TTITLE6=Judy Stone - Welcome Home
TTITLE7=Tanya Tucker - Delta Dawn
TTITLE8=Kitty Wells - Making Believe
TTITLE9=Loretta Lynn - Coal Miner's Daughter
TTITLE10=Barbara Mandrell - Release Me
TTITLE11=Billie Jo Spears - All I Have To Do Is Dream
TTITLE12=Jeannie Seely - Don't Touch Me
TTITLE13=Lynn Anderson - Rose Garden
TTITLE14=Sammi Smith - Help Me Make It Through The Night
TTITLE15=Tammy Wynette - Stand By Your Man
EXTD=Janda Music/Midas Music
EXTT0=
EXTT1=
EXTT2=
EXTT3=
EXTT4=
EXTT5=
EXTT6=
EXTT7=
EXTT8=
EXTT9=
EXTT10=
EXTT11=
EXTT12=
EXTT13=
EXTT14=
EXTT15=
PLAYORDER=
